<?xml version="1.0" encoding="UTF-8" standalone="no"?>
<svg
   xmlns:dc="http://purl.org/dc/elements/1.1/"
   xmlns:cc="http://creativecommons.org/ns#"
   xmlns:rdf="http://www.w3.org/1999/02/22-rdf-syntax-ns#"
   xmlns:svg="http://www.w3.org/2000/svg"
   xmlns="http://www.w3.org/2000/svg"
   viewBox="0 0 2400 1350"
   height="1350"
   width="2400"
   version="1.1"
   id="svg4190">
  <metadata
     id="metadata4196">
    <rdf:RDF>
      <cc:Work
         rdf:about="">
        <dc:format>image/svg+xml</dc:format>
        <dc:type
           rdf:resource="http://purl.org/dc/dcmitype/StillImage" />
        <dc:title></dc:title>
      </cc:Work>
    </rdf:RDF>
  </metadata>
  <defs
     id="defs4194" />
  <g
     id="g4200">
    <path
       id="path4204"
       d="M 0,675 0,0 l 1200,0 1200,0 0,675 0,675 -1200,0 -1200,0 0,-675 z"
       style="fill:#faf2f1" />
    <path
       id="path4202"
       d="M 0,675 0,0 l 1200,0 1200,0 0,675 0,675 -1200,0 -1200,0 0,-675 z m 1376.25,559.9956 c 19.015,-2.8861 31.038,-7.9617 40.9161,-17.2729 8.1141,-7.6485 11.6889,-15.4693 12.5264,-27.4046 0.7997,-11.3968 -1.1695,-18.6729 -6.8496,-25.3089 -9.2583,-10.8161 -16.8844,-12.6085 -57.9669,-13.6241 -38.4117,-0.9495 -38.811,-1.1611 -31.0835,-16.4692 l 3.7924,-7.5128 14.0201,0.7895 c 34.421,1.9384 54.0784,-8.5772 60.9223,-32.5899 1.6517,-5.7954 1.0283,-22.4121 -1.1433,-30.4778 -0.8145,-3.025 -2.5841,-7.0493 -3.9325,-8.9429 -1.3483,-1.8936 -2.4515,-3.9337 -2.4515,-4.5335 0,-0.5998 3.9564,-5.013 8.7919,-9.807 9.0184,-8.941 10.2736,-12.0881 5.9122,-14.822 -1.7432,-1.0927 -5.0253,0.06 -16.6608,5.852 l -14.49,7.2127 -13.3392,-1.4374 c -37.0513,-3.9926 -59.6198,5.6212 -67.1255,28.5945 -1.682,5.1485 -2.0317,9.4464 -1.5765,19.375 0.7173,15.6428 3.7847,22.6047 13.955,31.6731 l 6.8253,6.0856 -10.5066,11.875 c -6.9468,7.8516 -10.5115,12.8966 -10.5212,14.8902 -0.023,4.6242 5.5068,13.0149 11.1564,16.93 2.7934,1.9359 5.079,3.9375 5.079,4.448 0,0.5105 -3.138,3.609 -6.9734,6.8857 -10.7836,9.2127 -13.6047,14.4032 -13.6303,25.078 -0.019,7.7446 0.4313,9.51 3.5831,14.0579 5.8436,8.4324 19.2745,14.8777 35.1456,16.8659 7.0566,0.8839 28.7438,0.6343 35.625,-0.4101 z m -35.3319,-11.2706 c -9.5266,-2.4166 -14.6573,-5.9926 -17.2388,-12.0151 -1.3362,-3.117 -2.4293,-7.3732 -2.4293,-9.4583 0,-5.7875 3.881,-15.4941 8.8014,-22.0126 l 4.4263,-5.864 28.0737,-0.3492 c 30.6032,-0.3808 35.3619,0.3863 41.2442,6.6478 4.5958,4.8919 4.9264,15.7481 0.7318,24.0258 -3.8562,7.6095 -8.9319,11.7491 -19.6903,16.0583 -6.6805,2.6758 -10.4772,3.2674 -23.5871,3.6752 -8.5937,0.2674 -17.7431,-0.051 -20.3319,-0.7079 z m 3.7663,-108.7503 c -9.86,-5.3342 -14.272,-18.0748 -13.0419,-37.662 0.9411,-14.9876 5.7555,-23.7263 15.0014,-27.2294 5.2816,-2.0012 21.4387,-1.6457 26.788,0.5894 11.1545,4.6606 14.4946,11.9369 14.6098,31.8273 0.075,12.9439 -0.2278,14.9909 -3.0417,20.5612 -1.7188,3.4023 -5.2854,7.9023 -7.9258,10 -4.4657,3.5477 -5.5996,3.836 -16.25,4.1324 -9.5315,0.2652 -12.2348,-0.1064 -16.1398,-2.2189 z m -570.3094,62.532 c 16.39465,-1.7125 42.64631,-7.6556 49.12016,-11.1203 2.71745,-1.4543 2.7551,-1.8682 2.77398,-30.4929 0.01,-15.9602 0.44296,-29.685 0.96097,-30.4996 0.518,-0.8146 3.91689,-1.8758 7.55308,-2.3581 3.6362,-0.4824 7.82615,-1.8608 9.311,-3.0631 2.31989,-1.8786 2.46178,-2.4729 1.00855,-4.2239 -1.50125,-1.8089 -5.56769,-2.0005 -36.20947,-1.7058 -34.41035,0.331 -34.51948,0.3405 -34.90662,3.0599 -0.51558,3.6215 2.21226,4.8894 12.88835,5.9905 4.8125,0.4964 9.45312,1.4786 10.3125,2.1826 1.1569,0.9478 1.5625,7.8848 1.5625,26.7232 0,29.259 0.80219,27.3527 -13.125,31.1902 -13.60705,3.7492 -21.06894,4.5398 -36.875,3.9071 -22.60179,-0.9048 -34.4063,-5.813 -46.19771,-19.2088 -5.89834,-6.7008 -13.18168,-21.0239 -14.49884,-28.5127 -0.48369,-2.75 -1.40572,-5.6649 -2.04898,-6.4775 -1.74764,-2.2079 -2.64946,-40.8751 -1.20453,-51.6475 4.05119,-30.2032 14.51194,-48.0691 34.06987,-58.1881 18.76997,-9.71126 57.34574,-8.70908 78.79873,2.0472 9.77499,4.9011 10.65072,6.0828 11.68277,15.7653 1.19752,11.2349 2.28642,13.1212 7.29424,12.6361 l 3.97945,-0.3855 0,-19.8574 0,-19.85743 -6.875,-1.76241 c -28.39403,-7.27882 -74.44822,-8.74289 -95.625,-3.03994 -25.85201,6.96202 -44.56932,21.33588 -54.06764,41.52098 -8.25715,17.5474 -9.69363,25.5646 -9.60771,53.6212 0.0711,23.211 0.23839,24.8525 3.50343,34.375 1.88582,5.5 5.78972,14.1571 8.67535,19.2379 12.13716,21.3706 38.05351,37.0287 66.49657,40.176 10.7848,1.1934 29.65799,1.1786 41.25,-0.032 z m 232.7331,-2.3304 c 8.3925,-2.8976 10.6071,-4.8233 10.1426,-8.8193 l -0.3757,-3.232 -14.02,0 c -12.74479,0 -14.2691,-0.2483 -16.75783,-2.73 -5.6652,-5.6492 -6.05836,-9.4127 -6.07835,-58.1837 L 980,1056.2976 l 2.8125,-0.6512 c 1.54687,-0.3582 8.4375,-0.7907 15.3125,-0.9613 l 12.5,-0.3101 0.4052,-4.2439 c 0.2437,-2.5523 -0.2545,-4.6622 -1.25,-5.2934 -0.9104,-0.5772 -7.6914,-1.058 -15.06889,-1.0686 -15.69238,-0.022 -14.53129,1.3315 -15.02518,-17.5191 l -0.31113,-11.875 -4.00207,-0.3872 c -3.95516,-0.3826 -4.08705,-0.2141 -11.25,14.375 l -7.24793,14.7622 -7.77766,2.5277 c -8.74501,2.842 -11.02188,4.5365 -9.92755,7.3883 0.56362,1.4688 2.57582,1.959 8.04098,1.959 4.00908,0 7.96423,0.675 8.78923,1.5 1.11641,1.1164 1.50702,14.462 1.52745,52.1875 0.0252,46.6057 0.21329,51.0901 2.3351,55.6875 2.86912,6.2166 7.22024,10.3028 13.45644,12.6372 6.18097,2.3137 24.68213,1.3085 33.78911,-1.8359 z m 497.4009,-0.7973 c 4.0514,-1.7861 9.4856,-4.7106 12.0761,-6.4989 5.1861,-3.58 5.8527,-3.3655 7.7464,2.493 l 1.2935,4.0019 18.4375,0.3459 c 15.7149,0.2949 18.4375,0.069 18.4375,-1.5304 0,-2.2803 -6.2384,-5.6905 -10.4099,-5.6905 -1.6687,0 -3.6351,-0.7243 -4.3698,-1.6096 -0.8842,-1.0654 -1.4643,-18.5012 -1.7157,-51.5625 -0.4142,-54.5146 -0.141,-52.403 -7.9915,-61.7329 -8.7195,-10.3626 -27.3456,-13.7933 -56.1381,-10.34 -11.8839,1.4253 -19.2932,3.3628 -19.4436,5.0842 -0.037,0.4322 -0.14,6.3737 -0.2271,13.2034 -0.1325,10.3876 0.1852,12.6345 1.9436,13.7437 3.2632,2.0583 5.9969,-0.4727 8.3687,-7.7482 1.1559,-3.5459 2.8175,-7.3095 3.6923,-8.3636 4.5844,-5.5237 28.6052,-7.6839 35.9107,-3.2295 7.6513,4.6653 8.5054,7.3638 8.5054,26.871 l 0,17.559 -22.5,0.6477 -22.5,0.6478 -9.7071,4.7211 c -7.224,3.5135 -10.5234,5.9547 -12.8983,9.5435 -11.9151,18.0049 -7.5463,50.2427 8.0307,59.2598 6.4836,3.7532 11.1157,4.5132 24.0837,3.9516 9.4263,-0.4083 13.5933,-1.2186 19.375,-3.7675 z m -20.0714,-12.0242 c -9.9566,-2.3585 -13.1972,-8.5901 -13.167,-25.3199 0.026,-14.8791 2.5452,-19.8893 12.4794,-24.8271 6.4778,-3.2197 7.7418,-3.4002 21.875,-3.125 l 15,0.2922 0.3401,23.4375 c 0.187,12.8906 0.1846,23.4375 0,23.4375 -0.19,0 -3.9992,1.3213 -8.465,2.9362 -9.6339,3.4837 -21.2083,4.7909 -28.057,3.1686 z m -342.5626,8.9516 c 0,-3.3603 -2.8821,-4.7093 -10.5362,-4.9318 -3.3212,-0.097 -9.9276,-1.7087 -13.512,-3.2972 -0.4556,-0.2019 15.51,-46.2498 17.4118,-50.2189 l 1.6691,-3.4835 37.0029,-0.3308 c 28.6454,-0.2562 37.293,0.026 38.2876,1.25 0.7066,0.8694 3.2849,7.4871 5.7294,14.7058 2.4445,7.2188 6.1609,18.0458 8.2585,24.0602 2.0977,6.0143 3.8139,11.643 3.8139,12.5081 0,1.8336 -8.3033,4.6817 -13.6489,4.6817 -6.3437,0 -10.1011,2.0809 -10.1011,5.5941 l 0,3.1559 40.625,0 40.625,0 0,-2.9913 c 0,-3.4799 -1.7287,-4.3476 -11.4834,-5.7642 -12.7853,-1.8566 -13.196,-2.2916 -20.6487,-21.8695 -3.6639,-9.625 -7.4149,-19.4687 -8.3355,-21.875 -0.9206,-2.4062 -5.918,-15.625 -11.1052,-29.375 -5.1873,-13.75 -13.7813,-36.25 -19.0979,-50 -5.3166,-13.75 -11.2835,-29.5 -13.2597,-35 -3.592,-9.99678 -5.0037,-13.50467 -7.7974,-19.375 -1.4329,-3.01087 -1.9782,-3.13798 -14.9311,-3.48031 l -13.4438,-0.35532 -2.3249,5.35532 c -1.2787,2.94542 -7.7848,20.26151 -14.4581,38.48031 -6.6732,18.2188 -17.4016,47.4688 -23.8407,65 -6.4391,17.5313 -14.6807,40.0284 -18.3146,49.9937 -6.1632,16.9012 -6.9004,18.2621 -10.9706,20.2525 -2.3999,1.1735 -6.4105,2.1607 -8.9124,2.1938 -5.4754,0.072 -10.5991,3.7424 -9.4403,6.7622 0.7254,1.8903 3.783,2.0594 31.771,1.7572 l 30.9683,-0.3344 0,-3.0686 z m 0.625,-77.5778 c 0,-1.3867 3.7123,-12.7773 8.2496,-25.3125 4.5373,-12.5351 9.9593,-27.5723 12.0488,-33.4161 7.2013,-20.1398 10.1708,-27.5 11.095,-27.5 0.5099,0 2.1387,3.2344 3.6197,7.1875 18.5285,49.457 27.6285,74.4582 28.2711,77.6708 l 0.7783,3.8917 -32.0312,0 c -31.2884,0 -32.0313,-0.059 -32.0313,-2.5214 z m 570.8674,79.2156 c 1.0865,-2.8316 -2.2028,-4.9447 -9.1869,-5.902 -3.1917,-0.4375 -6.5631,-1.4261 -7.4919,-2.1969 -1.3676,-1.135 -1.6886,-11.086 -1.6886,-52.3453 0,-44.5343 0.2443,-51.1466 1.9415,-52.5552 4.4556,-3.6978 30.5709,-6.1659 38.2891,-3.6187 6.009,1.9832 13.1267,9.6252 14.1215,15.1618 0.4089,2.2754 0.5813,24.3642 0.3832,49.0862 l -0.3603,44.9492 -7.2827,1.4585 c -8.0527,1.6128 -10.305,3.1079 -9.1634,6.0827 0.6691,1.7437 4.1906,1.9421 29.2284,1.6465 27.497,-0.3245 28.4677,-0.421 28.4677,-2.8294 0,-1.9935 -1.5036,-2.8915 -7.5,-4.4792 l -7.5,-1.9858 -0.625,-50.5208 -0.625,-50.5208 -3.5157,-7.161 c -10.117,-20.6068 -33.7274,-24.0284 -65.8002,-9.5357 -4.4362,2.0046 -8.7551,3.3803 -9.5973,3.057 -0.8423,-0.3232 -1.7127,-2.1677 -1.9342,-4.099 l -0.4026,-3.5113 -18.4639,-0.3461 c -15.6842,-0.2939 -18.575,-0.056 -19.2023,1.5785 -1.1381,2.9657 1.5721,5.2505 7.1087,5.9931 9.2219,1.2369 8.6825,-2.3911 8.6825,58.3995 0,42.2331 -0.356,54.9881 -1.5625,55.9851 -0.8594,0.7102 -3.8125,1.6961 -6.5625,2.191 -5.9925,1.0785 -8.125,2.5816 -8.125,5.7269 0,2.2281 1.4591,2.347 28.7892,2.347 25.5624,0 28.8777,-0.2304 29.5782,-2.0558 z m -782.37023,-1.9269 c 0.46447,-2.4148 -6.18918,-4.7488 -13.57076,-4.7603 -9.16617,-0.014 -8.63391,3.7252 -8.9857,-63.132 l -0.31571,-60 -20.79241,-0.3421 c -17.52292,-0.2883 -20.90529,-0.048 -21.51015,1.5283 -0.933,2.4314 3.71903,5.6888 8.12432,5.6888 1.86476,0 4.83336,0.5486 6.59687,1.2191 l 3.20637,1.219 0,55.612 c 0,53.7026 -0.083,55.6564 -2.41783,56.9059 -1.32979,0.7117 -4.33961,1.294 -6.68847,1.294 -6.57124,0 -12.1437,2.3597 -12.1437,5.1424 0,2.3132 1.20141,2.386 34.04589,2.0652 30.78092,-0.3007 34.08477,-0.5347 34.45128,-2.4403 z m 712.48513,0.078 c 0.4945,-2.5711 -2.1224,-3.5619 -11.7939,-4.465 -4.2445,-0.3963 -8.4703,-1.1857 -9.3904,-1.754 -1.3456,-0.8312 -1.7952,-12.8425 -2.298,-61.3921 l -0.625,-60.3587 -20.3397,-0.3436 c -17.6549,-0.2982 -20.4407,-0.081 -21.1035,1.6465 -1.1398,2.9701 1.1913,4.5569 8.3587,5.6899 3.5425,0.56 7.2326,1.6752 8.2002,2.4782 1.4628,1.2141 1.7593,10.5846 1.7593,55.6112 l 0,54.1511 -2.7781,1.9459 c -1.528,1.0702 -4.819,1.9458 -7.3135,1.9458 -8.5344,0 -14.6837,3.5582 -11.5554,6.6864 0.4691,0.4691 16.0711,0.7035 34.6709,0.5208 30.0511,-0.2952 33.8613,-0.5583 34.2083,-2.3624 z M 901.36735,1011.8143 c 4.46116,-2.3069 8.62148,-8.668 8.62797,-13.19195 0.006,-4.08235 -4.71303,-11.21386 -8.78285,-13.27321 -7.13505,-3.61039 -17.14372,-0.75863 -20.56631,5.85995 -7.13234,13.79241 6.90411,27.75031 20.72119,20.60521 z m 714.49655,-1.982 c 1.7646,-1.6265 3.9871,-4.7854 4.939,-7.0198 1.4712,-3.45343 1.4725,-4.68033 0.013,-8.18336 -2.782,-6.65818 -8.7685,-10.87914 -15.4298,-10.87914 -4.9267,0 -6.3167,0.64064 -10.529,4.85294 -4.036,4.03598 -4.853,5.70326 -4.853,9.9041 0,5.42716 4.2949,11.95696 9.273,14.09866 4.433,1.9072 13.0815,0.4615 16.5909,-2.7734 z M 1210.4425,895.96975 c 5.9666,-1.78765 10.9186,-6.48647 131.182,-124.47676 50.9311,-49.96839 81.47,-80.83394 82.8637,-83.75 1.2139,-2.53989 2.4573,-7.56474 2.763,-11.16634 0.9632,-11.34329 -2.9189,-17.13171 -27.2284,-40.59944 -11.5952,-11.19371 -57.8818,-56.41872 -102.859,-100.5 -75.8012,-74.29115 -82.2597,-80.30815 -88.3838,-82.34226 -7.8804,-2.61744 -16.3488,-1.97674 -23.382,1.769 -2.6252,1.3981 -14.5485,12.03734 -26.4963,23.64276 -16.0825,15.62165 -21.4365,21.55226 -20.619,22.83953 0.6074,0.95632 12.1513,12.60156 25.6533,25.87832 l 24.5491,24.13955 7.4523,-0.84312 c 10.6381,-1.20358 19.5778,1.64756 27.5005,8.77075 8.8457,7.95312 12.0849,15.94707 11.1414,27.49626 l -0.7187,8.797 24.5209,24.02471 24.521,24.0247 10.1113,-0.1962 c 11.1778,-0.2169 17.9633,2.00446 25.4482,8.33083 13.9706,11.8083 15.2096,33.15761 2.746,47.31697 -6.8113,7.738 -14.6086,11.19266 -25.583,11.33463 -10.4785,0.13553 -17.9307,-2.81043 -24.6742,-9.75394 -7.486,-7.70803 -9.0597,-12.20765 -9.1995,-26.30401 l -0.1238,-12.47233 -21.5529,-20.96517 C 1228.2205,629.43434 1218.0106,620 1217.3859,620 c -0.6652,0 -1.1359,24.48075 -1.1359,59.07024 l 0,59.07023 6.6835,6.45135 c 8.0882,7.80729 11.1098,13.72798 11.8211,23.16349 1.9527,25.90023 -25.1921,43.76904 -49.2212,32.40123 -13.3461,-6.31383 -20.0315,-17.98202 -19.0584,-33.26335 0.6338,-9.95479 5.3488,-18.03839 14.5125,-24.88134 l 6.5125,-4.86315 0,-60.2737 0,-60.2737 -6.5125,-4.86315 c -3.5819,-2.67474 -8.2225,-7.63622 -10.3125,-11.02555 -3.5563,-5.7672 -3.8,-6.94878 -3.8,-18.42483 l 0,-12.26243 -24.363,-24.38767 c -13.3996,-13.41322 -24.9309,-24.37403 -25.625,-24.35736 -1.5073,0.0362 -10.9585,9.10435 -82.6561,79.30608 -30.1707,29.54126 -56.03786,55.41626 -57.48248,57.5 -5.97217,8.61437 -6.8981,19.077 -2.5072,28.33015 2.14114,4.5121 22.37089,24.83192 115.57858,116.09318 81.2419,79.54537 91.3808,89.18556 96.8865,92.12129 5.9493,3.17225 15.7681,3.72604 23.7362,1.33874 z M 708.75,331.84306 c 6.41276,-2.3221 13.10955,-6.1169 17.1239,-9.70341 3.2423,-2.89675 6.6261,-2.05245 6.6261,1.6533 0,1.44177 0.58229,3.70942 1.29397,5.03922 1.17258,2.19097 2.74899,2.41783 16.80124,2.41783 15.08045,0 18.94553,-0.95926 15.94695,-3.95784 -0.68201,-0.68201 -3.67647,-1.78745 -6.65437,-2.45655 -2.9779,-0.66909 -6.13964,-1.81844 -7.02608,-2.55412 -1.26565,-1.05039 -1.61171,-11.89882 -1.61171,-50.5239 0,-48.90902 -0.0165,-49.22375 -2.93718,-55.82779 -3.14708,-7.1161 -8.78047,-12.69531 -15.77933,-15.62757 -6.2047,-2.59954 -26.04149,-3.38487 -41.14548,-1.62894 -20.15769,2.34346 -19.03865,1.30756 -18.61795,17.23459 0.30652,11.60427 0.65149,13.49428 2.52869,13.85381 2.37688,0.45522 3.77928,-2.07628 5.98475,-10.80318 1.18538,-4.69045 2.09306,-5.73684 6.77169,-7.80641 2.97156,-1.31446 9.62269,-3.04597 14.78028,-3.84781 8.92242,-1.38714 9.67254,-1.31162 15.45849,1.55641 4.63698,2.2985 6.7559,4.35006 8.9229,8.6393 2.58913,5.12474 2.81147,7.07019 2.5,21.875 l -0.34186,16.25 -20.625,0.73478 c -23.15949,0.82506 -30.47695,2.51654 -38.86874,8.98477 -2.87599,2.21675 -6.69769,6.84295 -8.49266,10.28045 -2.97158,5.69075 -3.26176,7.53627 -3.2431,20.625 0.0125,8.73957 0.67687,16.25467 1.69481,19.16971 2.93469,8.40395 10.43534,15.28728 20.1516,18.49305 4.65179,1.53481 22.31423,0.26365 28.75809,-2.0697 z m -19.66289,-13.6963 c -8.30294,-3.60951 -12.92144,-17.57539 -10.33871,-31.26326 1.90999,-10.12256 4.87367,-14.85304 11.51506,-18.37971 4.81041,-2.55441 7.09616,-2.8487 22.23654,-2.86293 l 16.875,-0.0159 0.34055,22.77279 0.34054,22.77278 -5.34054,2.73035 c -11.56269,5.91143 -27.4437,7.80398 -35.62844,4.24584 z M 998.75,333.75764 c 18.3663,-3.56989 26.875,-7.54242 26.875,-12.54742 0,-3.44485 0.3334,-3.41252 -13.75,-1.33363 -30.07691,4.43973 -46.58952,-1.22529 -55.4382,-19.01933 -3.90841,-7.85955 -4.20066,-9.31762 -4.375,-21.82721 L 951.875,265.625 991.25,265 l 39.375,-0.625 0.3634,-11.08819 c 0.8882,-27.1045 -10.8951,-48.20016 -30.1104,-53.90647 -14.75659,-4.38225 -33.8498,-3.11549 -45.5581,3.02261 -20.55952,10.77836 -30.53405,39.43782 -26.74235,76.83794 2.46135,24.27805 8.65701,37.52701 21.7484,46.50735 11.26206,7.72546 32.12846,11.17678 48.42405,8.0094 z m -46.25756,-80.64175 c -2.08009,-2.50635 -0.60348,-17.73097 2.51593,-25.94059 5.15894,-13.5772 13.39963,-19.60227 26.86663,-19.64318 15.64408,-0.0475 22.7845,8.76743 25.6697,31.68978 1.2026,9.55396 1.1936,12.41104 -0.044,13.90175 -2.3183,2.7934 -52.68984,2.7863 -55.0087,-0.007 z m 666.88256,78.34164 c 13.129,-4.1397 17.0429,-6.53087 16.6205,-10.15422 -0.274,-2.35054 -1.0216,-3.09854 -2.8705,-2.87199 -1.375,0.16848 -6.4375,0.85424 -11.25,1.5239 -26.9491,3.75003 -44.3758,-0.83562 -52.583,-13.83665 -5.1581,-8.17101 -7.1085,-15.85048 -7.2684,-28.61857 l -0.1486,-11.875 39.375,-0.625 39.375,-0.625 -0.081,-15 c -0.1088,-19.95686 -4.176,-31.59729 -14.4993,-41.49848 -9.1492,-8.7752 -26.7785,-13.03826 -43.1956,-10.4454 -21.2661,3.35873 -33.5105,14.17534 -41.1129,36.31888 -2.0174,5.87592 -2.3569,10.59881 -2.3362,32.5 0.023,23.52965 0.262,26.31814 2.9335,34.10167 6.671,19.43593 19.6152,30.03782 41.4173,33.92235 6.6938,1.19264 28.3368,-0.51844 35.625,-2.81649 z m -56.8684,-78.32459 c -1.9563,-2.35722 -0.7148,-16.34442 2.1643,-24.38294 5.2176,-14.56824 13.7631,-21.26541 27.0882,-21.22944 9.534,0.0258 16.416,3.60716 20.3261,10.57781 5.3393,9.51858 8.6124,31.95399 5.1648,35.40163 -1.07,1.06994 -8.9104,1.5 -27.347,1.5 -21.4012,0 -26.1134,-0.32114 -27.3964,-1.86706 z m 365.1657,78.30192 c 11.386,-3.14375 16.7027,-6.40805 16.7027,-10.25492 0,-3.4385 -0.4622,-3.48674 -12.5,-1.30421 -9.4401,1.71153 -25.7419,1.7615 -34.4732,0.10562 -24.9333,-4.7285 -34.8414,-20.7222 -34.8833,-56.30845 -0.049,-41.8197 16.6278,-61.34143 47.9343,-56.11078 9.8151,1.6399 17.5876,5.00398 19.3602,8.37944 0.6308,1.20088 1.5598,4.71466 2.0646,7.80842 1.2554,7.6921 3.911,12.5 6.9045,12.5 2.3392,0 2.4679,-0.90889 2.4679,-17.42623 0,-9.58442 -0.5208,-17.74805 -1.1571,-18.14137 -0.6364,-0.39333 -9.7376,-1.66091 -20.2248,-2.81685 -17.9206,-1.97527 -19.8192,-1.97347 -31.5595,0.0299 -19.2712,3.28849 -30.7623,10.68194 -39.2126,25.22953 -6.8956,11.87138 -8.3275,18.28401 -8.8405,39.59264 -0.4043,16.791 -0.1012,21.02167 2.1186,29.58602 6.3219,24.38884 19.4733,36.47745 45.1259,41.47955 8.2232,1.60347 30.5964,0.29561 40.1722,-2.34835 z m 89.2027,0.47636 c 7.4038,-2.94623 12.0994,-5.64462 15.8371,-9.10078 4.2624,-3.94143 6.1385,-3.25201 7.8589,2.888 l 1.3804,4.92656 16.1103,0.35143 c 16.0138,0.34931 20.3559,-0.55878 17.2973,-3.61745 -0.7651,-0.76507 -4.052,-1.88814 -7.3042,-2.49574 -3.2524,-0.6076 -6.6764,-1.73801 -7.6091,-2.51204 -1.3752,-1.14131 -1.7009,-10.88797 -1.7232,-51.56675 -0.03,-55.07866 -0.057,-55.29429 -7.9374,-63.67132 -7.9543,-8.45573 -26.2156,-11.42548 -51.8971,-8.43984 -20.1595,2.34366 -19.0386,1.30523 -18.618,17.24941 0.3229,12.2354 0.5689,13.4523 2.7188,13.4523 2.7193,0 3.7273,-1.56991 6.0005,-9.3455 2.0447,-6.99475 7.4036,-10.30884 20.2117,-12.49974 14.131,-2.41718 23.1383,1.47444 26.9869,11.65984 2.2052,5.83617 3.2425,32.85951 1.3487,35.14122 -1.2945,1.55988 -4.8996,1.91918 -19.2561,1.91918 -29.0907,0 -41.1759,4.99833 -49.868,20.625 -2.4429,4.3918 -2.7704,6.74859 -2.693,19.375 0.074,12.08374 0.5353,15.3712 2.8935,20.625 4.3283,9.64274 9.864,14.47689 19.512,17.03911 5.5903,1.48463 23.0413,0.26889 28.75,-2.00289 z m -18.812,-13.66947 c -9.1845,-4.00051 -13.1656,-14.66125 -11.3248,-30.32504 1.1517,-9.79817 4.7364,-16.07547 11.0912,-19.42145 4.4892,-2.3638 7.7466,-2.86193 21.3917,-3.27144 12.5799,-0.37752 16.3304,-0.11337 17.1684,1.20907 0.5897,0.93066 1.0809,11.38227 1.0914,23.2258 l 0.019,21.53367 -3.1887,2.08935 c -8.504,5.57204 -28.5468,8.31459 -36.2483,4.96004 z M 463.33021,329.29097 c 1.22165,-3.18356 -1.22192,-4.43851 -12.89974,-6.62491 l -11.05547,-2.06987 -0.32238,-74.78055 c -0.25452,-59.0406 0.004,-74.67187 1.22679,-74.26417 1.64175,0.54725 4.27913,6.29893 18.49,40.32353 4.88146,11.6875 11.34148,27.15625 14.35559,34.375 3.01411,7.21875 9.48286,22.6875 14.375,34.375 23.80849,56.87942 21.49949,52.1906 24.28824,49.32142 0.97371,-1.00178 8.89841,-17.57142 17.61046,-36.82142 8.71204,-19.25 18.3176,-40.2488 21.34569,-46.66401 3.02808,-6.4152 5.50561,-11.90595 5.50561,-12.20167 0,-0.29571 2.8125,-6.48591 6.25,-13.756 3.4375,-7.27008 6.25,-13.45758 6.25,-13.75 0,-0.62002 11.41199,-25.33183 14.66169,-31.7488 1.21732,-2.40375 2.77581,-4.37249 3.46331,-4.375 2.0182,-0.008 2.33396,147.43347 0.31932,149.10546 -0.86643,0.71908 -5.98875,2.14077 -11.3829,3.15929 -10.47031,1.977 -12.83833,3.27816 -11.64163,6.39671 0.65827,1.71542 5.19134,1.95902 36.45521,1.95902 31.26387,0 35.79694,-0.2436 36.45521,-1.95903 1.2074,-3.14645 -1.2501,-4.48322 -12.30409,-6.69288 l -10.40112,-2.07914 0,-83.56075 c 0,-73.02231 0.23648,-83.68008 1.875,-84.507 1.03125,-0.52044 6.09375,-1.72094 11.25,-2.66778 7.92055,-1.45445 9.375,-2.10448 9.375,-4.18997 0,-2.37878 -0.94405,-2.46845 -25.98621,-2.46845 l -25.98622,0 -5.71263,12.5 c -3.14195,6.875 -8.18253,17.7488 -11.20129,24.16401 -3.01876,6.4152 -5.48865,11.88876 -5.48865,12.16348 0,0.2747 -2.17885,5.1509 -4.84189,10.83598 -2.66303,5.68509 -7.78809,16.80528 -11.38899,24.71153 -18.9535,41.61481 -26.57581,57.5 -27.5907,57.5 -1.69272,0 -3.54421,-3.27675 -7.78057,-13.77008 -2.35478,-5.83271 -7.14153,-17.35492 -10.63723,-25.60492 -3.49568,-8.25 -9.52358,-22.59375 -13.39533,-31.875 -3.87174,-9.28125 -7.76607,-18.5625 -8.65406,-20.625 -0.88799,-2.0625 -5.72662,-13.59375 -10.7525,-25.625 -5.02589,-12.03125 -9.6817,-22.58888 -10.34624,-23.4614 -0.92506,-1.21456 -7.54003,-1.50755 -28.22288,-1.25 -25.77281,0.32094 -27.01461,0.4477 -27.01461,2.7577 0,2.05266 1.68957,2.74689 11.09731,4.55981 6.10353,1.17618 11.57929,2.8991 12.16837,3.8287 0.58907,0.9296 1.07966,38.32444 1.09018,83.09964 0.015,63.63779 -0.32195,81.6858 -1.54336,82.67542 -0.85938,0.6963 -6.04803,2.18507 -11.53033,3.30838 -10.75367,2.20341 -12.6513,3.23961 -11.48738,6.27272 0.65373,1.7036 4.67356,1.95903 30.83021,1.95903 26.15665,0 30.17648,-0.25543 30.83021,-1.95903 z M 833.125,328.32229 c 0,-1.65363 -1.76176,-2.88687 -6.25,-4.375 l -6.25,-2.07229 -0.3445,-18.95915 -0.3445,-18.95915 6.10351,-7.29085 c 3.35694,-4.00996 7.32869,-8.38037 8.82613,-9.71201 2.69305,-2.39488 2.74747,-2.39488 5.01455,0 2.06868,2.18531 29.00145,44.85951 32.4098,51.3524 1.64946,3.14222 0.0113,5.04454 -5.64758,6.55792 -2.31506,0.61915 -3.51741,1.76454 -3.51741,3.35078 0,2.30171 1.15207,2.41006 25.625,2.41006 24.73277,0 25.625,-0.0865 25.625,-2.48288 0,-1.50805 -0.98155,-2.64955 -2.5,-2.90737 -9.87644,-1.677 -11.4356,-2.67788 -16.41904,-10.53986 -2.7262,-4.30094 -10.27219,-16.11429 -16.76885,-26.25189 -6.49666,-10.13759 -15.01799,-23.59445 -18.93629,-29.90411 l -7.12418,-11.47214 7.31846,-8.22088 c 4.02515,-4.52147 12.58047,-13.36598 19.01184,-19.65446 11.43842,-11.18427 13.96801,-12.69421 24.16806,-14.42616 1.51845,-0.25783 2.5,-1.39933 2.5,-2.90738 0,-2.3798 -0.88218,-2.48287 -21.25,-2.48287 -20.1087,0 -21.25,0.12867 -21.25,2.39584 0,1.70751 1.52626,2.90459 5.3125,4.16666 2.92187,0.97396 5.3125,2.31359 5.3125,2.97696 0,2.30755 -49.6927,56.71054 -51.80046,56.71054 -0.90865,0 -1.52078,-21.19428 -1.94954,-67.5 l -0.625,-67.5 -20,0 c -18.86095,0 -20,0.13614 -20,2.39039 0,1.93271 1.5186,2.70015 7.9316,4.00829 4.36237,0.88983 8.72175,2.27367 9.6875,3.07516 1.47782,1.22649 1.7559,15.57281 1.7559,90.58994 0,99.76018 0.75069,92.23312 -9.34966,93.74776 -5.76299,0.86421 -8.97377,3.21985 -7.54337,5.5343 0.54874,0.88786 9.21164,1.2179 26.04512,0.99226 23.5469,-0.31564 25.22291,-0.49111 25.22291,-2.64081 z m 327.7423,0.87195 c 1.2025,-3.13353 -2.1414,-4.79472 -13.2987,-6.60662 -5.5599,-0.90292 -10.3996,-2.11191 -10.7548,-2.68664 -0.6083,-0.98422 14.6747,-48.00957 17.1316,-52.71348 1.0486,-2.00767 4.1577,-2.1875 37.8205,-2.1875 28.0149,0 36.9874,0.37281 37.988,1.57844 2.1566,2.59864 18.0014,50.95327 17.2974,52.78787 -0.3844,1.00168 -4.5673,2.35344 -10.2235,3.30385 -10.6663,1.79225 -13.8776,3.44255 -12.6951,6.52408 0.7074,1.84354 4.6038,2.05576 37.7423,2.05576 31.8326,0 37.054,-0.26204 37.6791,-1.89091 1.2811,-3.33863 -1.8476,-5.22011 -11.3966,-6.85353 -5.3789,-0.92008 -10.0446,-2.44966 -11.0211,-3.61306 -0.9314,-1.10962 -6.9039,-16.36125 -13.272,-33.8925 -6.3683,-17.53125 -12.3742,-33.98437 -13.3465,-36.5625 -0.9723,-2.57812 -2.5662,-6.79687 -3.542,-9.375 -0.9757,-2.57812 -9.1909,-24.9375 -18.2559,-49.6875 -9.065,-24.75 -17.0159,-46.00437 -17.6687,-47.23195 -1.0351,-1.94664 -2.7239,-2.18631 -13.2108,-1.875 l -12.024,0.35695 -6.1649,17.5 c -3.3907,9.625 -8.6205,24.53125 -11.6218,33.125 -3.0013,8.59375 -7.4971,21.25 -9.9907,28.125 -2.4936,6.875 -5.5529,15.59375 -6.7985,19.375 -2.0622,6.26031 -12.5326,35.92314 -16.9872,48.125 -1.004,2.75 -3.5149,9.98496 -5.5798,16.0777 -5.9821,17.6507 -6.0658,17.75606 -15.6088,19.65291 -9.5178,1.89184 -12.5614,3.64593 -11.4321,6.58863 0.7005,1.82545 4.0185,2.05576 29.6173,2.05576 25.5988,0 28.9168,-0.23031 29.6173,-2.05576 z M 1160,250.17589 c 0,-1.27825 2.5714,-9.57513 5.7141,-18.4375 3.1428,-8.86236 8.2097,-23.42589 11.2597,-32.36339 10.7629,-31.53874 12.6151,-36.25334 14.3744,-36.58899 1.2276,-0.23421 3.2581,3.82235 6.5694,13.125 9.7566,27.40923 17.4103,48.78206 21.5636,60.21592 2.3478,6.46356 4.2688,12.79168 4.2688,14.0625 0,2.18702 -1.7044,2.31057 -31.875,2.31057 -30.2375,0 -31.875,-0.11938 -31.875,-2.32411 z m 208.1924,79.7152 c 1.3863,-2.24325 -1.1066,-3.63614 -8.7283,-4.87658 -3.9746,-0.64689 -8.0174,-1.83247 -8.9839,-2.63466 -1.468,-1.2183 -1.7037,-9.99404 -1.4313,-53.28565 l 0.3261,-51.82715 5,-1.81645 c 2.7736,-1.00762 11.6792,-2.10235 20,-2.4585 14.0695,-0.6022 15.3086,-0.46132 19.9745,2.27091 2.736,1.60213 6.2424,5.15148 7.792,7.88747 2.7821,4.9123 2.8176,5.55499 2.8379,51.38397 0.018,39.57557 -0.2533,46.63671 -1.8392,47.95285 -1.0227,0.84888 -5.1008,2.18337 -9.0625,2.96555 -4.937,0.9748 -7.2027,2.01195 -7.2027,3.29715 0,1.60237 4.1677,1.92394 28.6635,2.21155 28.0065,0.32883 33.1517,-0.27131 29.9319,-3.49123 -0.7039,-0.70382 -4.5814,-1.81702 -8.6168,-2.47379 -4.0352,-0.65677 -8.0427,-1.90904 -8.9055,-2.78283 -1.1988,-1.21428 -1.621,-13.60556 -1.7911,-52.57671 -0.1225,-28.04342 0.1569,-51.36754 0.6208,-51.8314 1.9455,-1.94549 13.5001,-4.06355 26.3656,-4.83303 12.4837,-0.74664 14.2501,-0.57774 18.9307,1.81018 3.6539,1.86407 5.9314,4.22223 7.7942,8.07011 2.533,5.23257 2.6317,7.20454 2.6317,52.58104 0,41.30611 -0.2385,47.2361 -1.9259,47.88358 -1.0591,0.40645 -5.1372,1.37317 -9.0625,2.14827 -4.884,0.96443 -7.1366,2.00108 -7.1366,3.28426 0,1.61111 3.9584,1.875 28.125,1.875 24.1666,0 28.125,-0.26389 28.125,-1.875 0,-1.23629 -2.3419,-2.44579 -6.875,-3.55061 -3.7812,-0.92158 -7.5547,-2.23673 -8.3856,-2.92255 -1.1253,-0.92872 -1.6038,-14.37788 -1.875,-52.69939 l -0.3644,-51.45245 -3.3137,-6.25 c -1.8227,-3.4375 -4.6512,-7.49661 -6.2857,-9.02025 -7.1637,-6.67789 -22.2312,-8.37506 -37.9006,-4.26906 -9.3554,2.45147 -25.478,8.51601 -27.4375,10.32067 -2.4342,2.24182 -6.1159,0.95373 -10.6614,-3.7301 -11.3501,-11.69563 -31.5162,-11.80216 -56.842,-0.30028 -9.5129,4.32031 -11.9341,4.25768 -11.9341,-0.30869 0,-5.29515 -2.2637,-5.91708 -20.173,-5.54204 -15.4379,0.32328 -16.702,0.52906 -16.702,2.71879 0,1.76769 1.5865,2.82936 6.25,4.18257 3.4375,0.99747 6.9531,2.3909 7.8125,3.09653 1.2078,0.99169 1.5625,14.02531 1.5625,57.40671 l 0,56.12375 -2.8125,1.09235 c -1.5469,0.60079 -5.0565,1.5731 -7.7992,2.1607 -3.2093,0.68755 -5.1355,1.84805 -5.4042,3.25585 -0.3875,2.03092 1.597,2.1875 27.7255,2.1875 18.9173,0 28.4182,-0.44548 28.9828,-1.35891 z m 352.4326,-1.71296 c 0,-2.08774 -1.4079,-2.66456 -9.5925,-3.93003 -5.2759,-0.81574 -10.1977,-1.85722 -10.9375,-2.3144 -2.0742,-1.28195 -1.8627,-98.74902 0.2175,-100.26992 4.0511,-2.96179 28.4478,-8.28065 31.9364,-6.96268 0.8932,0.33742 3.3101,3.95389 5.3711,8.03658 2.675,5.29921 4.3563,7.30577 5.8761,7.01308 1.8797,-0.36201 2.1289,-2.38325 2.1289,-17.26789 l 0,-16.85787 -4.1661,0.19559 c -5.7075,0.26795 -22.9611,7.29558 -32.219,13.12325 -4.1993,2.64339 -8.2429,4.80616 -8.9859,4.80616 -0.743,0 -1.7085,-2.67187 -2.1457,-5.9375 -0.4372,-3.26562 -1.0227,-6.65657 -1.3009,-7.53544 -0.3859,-1.21808 -4.598,-1.51523 -17.7193,-1.25 -16.0338,0.3241 -17.2131,0.51274 -17.2131,2.75344 0,1.86788 1.4069,2.72236 6.2946,3.82319 3.462,0.77972 6.9776,1.83981 7.8125,2.35576 1.154,0.71323 1.5179,14.39329 1.5179,57.07034 0,63.22711 0.9099,57.74565 -9.8711,59.4696 -5.5934,0.89441 -7.0004,2.07792 -5.895,4.95859 0.598,1.55837 5.1348,1.78715 29.7982,1.50263 27.9347,-0.32225 29.0929,-0.43302 29.0929,-2.78248 z m 100,-0.67813 c 0,-1.27846 -2.3861,-2.39005 -7.5,-3.49388 -4.125,-0.89038 -8.9062,-2.31801 -10.625,-3.17248 l -3.125,-1.55361 -0.625,-59.95252 -0.625,-59.95251 -18.0269,-0.34812 c -11.8585,-0.22902 -18.4881,0.12062 -19.375,1.02165 -1.9281,1.95905 2.5215,4.95147 7.3627,4.95147 2.1218,0 5.1081,0.87565 6.6361,1.94588 l 2.7781,1.94588 0,55.40107 c 0,42.82317 -0.3547,55.68386 -1.5625,56.64671 -0.8594,0.68511 -5.1805,1.86892 -9.6026,2.63069 -8.4329,1.45268 -10.9355,2.79217 -9.514,5.09213 0.5947,0.9624 10.381,1.27917 32.3285,1.04642 26.9966,-0.28628 31.4756,-0.60059 31.4756,-2.20878 z m -24.0625,-163.69254 c 4.9543,-5.54436 4.8994,-14.47815 -0.1225,-19.85367 -4.3234,-4.62823 -9.0315,-5.9871 -13.8411,-3.99488 -11.5454,4.78221 -13.4699,19.67154 -3.4001,26.30462 5.5851,3.67896 12.7922,2.6595 17.3633,-2.45607 z"
       style="fill:#d43e25" />
  </g>
</svg>
